<svg width="185" height="32" viewBox="0 0 185 32" fill="none" xmlns="http://www.w3.org/2000/svg">
<path fill-rule="evenodd" clip-rule="evenodd" d="M128.854 19.0571C128.618 19.0571 128.384 19.1355 128.193 19.2921L126.233 21.2747C126.034 21.4772 125.932 21.7418 125.928 22.0075C125.925 22.2826 126.027 22.5581 126.233 22.7674L128.206 24.7639C128.395 24.9138 128.625 24.9892 128.854 24.9892C129.122 24.9892 129.391 24.8861 129.594 24.6805L132.22 22.0215L129.595 19.3656C129.391 19.1599 129.122 19.0571 128.854 19.0571Z" fill="#29235C"/>
<path fill-rule="evenodd" clip-rule="evenodd" d="M121.22 19.0571C120.952 19.0571 120.683 19.1599 120.479 19.3656L117.854 22.0215L120.48 24.6805C120.683 24.8861 120.952 24.9892 121.22 24.9892C121.45 24.9892 121.681 24.9129 121.871 24.7614L123.841 22.7674C124.043 22.5618 124.146 22.2915 124.146 22.0212C124.146 21.7509 124.043 21.4803 123.841 21.2747L121.887 19.2975C121.694 19.1374 121.457 19.0571 121.22 19.0571Z" fill="#29235C"/>
<path fill-rule="evenodd" clip-rule="evenodd" d="M172.675 21.9942H184.166V16.1809C184.166 14.0171 183.402 12.2063 181.873 10.7492C180.344 9.29291 178.362 8.5635 175.926 8.5635C173.491 8.5635 171.494 9.30687 169.937 10.7947C168.377 12.2823 167.598 14.1071 167.598 16.2711V24.2924C167.598 26.4869 168.37 28.3191 169.914 29.7915C171.458 31.264 173.448 32 175.882 32C178.079 32 179.964 31.354 181.538 30.0613C183.111 28.7696 184.017 27.0565 184.255 24.9244H179.089L178.911 25.5547C178.792 25.9753 178.465 26.3954 177.931 26.8172C177.396 27.2376 176.714 27.4475 175.882 27.4475C174.962 27.4475 174.197 27.1476 173.588 26.5461C172.979 25.9463 172.675 25.1647 172.675 24.2024V21.9942ZM172.675 17.7134V16.2711C172.675 15.3694 173.002 14.6263 173.655 14.0399C174.309 13.4538 175.066 13.161 175.926 13.161C176.847 13.161 177.612 13.4461 178.22 14.0171C178.828 14.5885 179.134 15.3389 179.134 16.2711V17.7134H172.675ZM161.405 29.3179C163.01 27.8315 163.81 25.9463 163.81 23.6615V20.2822C163.81 19.1999 163.595 18.1931 163.165 17.2623C162.734 16.3307 162.392 15.738 162.141 15.4822C161.888 15.2264 161.673 15.039 161.494 14.9186L162.03 14.3321C162.356 13.9716 162.69 13.3865 163.03 12.5751C163.372 11.7634 163.544 10.9072 163.544 10.0058V7.39235C163.544 5.31805 162.808 3.56844 161.339 2.14123C159.868 0.714314 158.035 0 155.838 0H146.441V31.5489H155.704C157.902 31.5489 159.802 30.8058 161.405 29.3179ZM158.243 10.1867C158.243 10.7868 158.013 11.3051 157.553 11.7417C157.093 12.1775 156.536 12.3951 155.883 12.3951H151.83V5.2739H155.883C156.536 5.2739 157.093 5.49178 157.553 5.92755C158.013 6.36275 158.243 6.88082 158.243 7.48207V10.1867ZM158.377 23.6615C158.377 24.3835 158.117 24.9987 157.598 25.5094C157.078 26.0206 156.447 26.2764 155.704 26.2764H151.83V17.6679H155.704C156.536 17.6679 157.189 17.9678 157.664 18.5693C158.139 19.1705 158.377 19.7556 158.377 20.3266V23.6615Z" fill="#29235C"/>
<path fill-rule="evenodd" clip-rule="evenodd" d="M106.662 13.7916L108.176 9.37494L107.775 9.19408C107.538 9.07503 107.144 8.95455 106.595 8.83465C106.046 8.71417 105.473 8.65322 104.88 8.65322C104.346 8.65322 103.827 8.75832 103.321 8.96993C102.817 9.18013 102.408 9.4131 102.096 9.66773C101.785 9.92321 101.496 10.216 101.228 10.5467C100.961 10.8768 100.782 11.1023 100.694 11.2225C100.605 11.343 100.545 11.4478 100.516 11.5378L100.427 9.01408H95.5722V31.5491H100.739V18.5235C100.739 16.8114 101.072 15.5124 101.741 14.6263C102.408 13.7397 103.262 13.2968 104.301 13.2968C105.281 13.2968 106.068 13.4615 106.662 13.7916ZM79.0913 24.2024V21.9942H90.5819V16.1809C90.5819 14.0171 89.8174 12.2063 88.2883 10.7492C86.7594 9.29291 84.7773 8.5635 82.3422 8.5635C79.9087 8.5635 77.9114 9.30687 76.3521 10.7947C74.7931 12.2826 74.0135 14.1068 74.0135 16.2711V24.2926C74.0135 26.4866 74.7855 28.3185 76.3296 29.7915C77.8737 31.264 79.8631 31.9997 82.2982 31.9997C84.4956 31.9997 86.3814 31.3538 87.9542 30.0613C89.5284 28.7696 90.4344 27.0568 90.6705 24.9238H85.5055L85.3265 25.5549C85.2074 25.975 84.8812 26.3954 84.3467 26.8172C83.8122 27.2373 83.1291 27.4478 82.2982 27.4478C81.3773 27.4478 80.6129 27.1479 80.0049 26.5461C79.3953 25.9457 79.0913 25.1647 79.0913 24.2024ZM79.0913 17.7134V16.2711C79.0913 15.3691 79.4181 14.6263 80.0708 14.0396C80.7243 13.4538 81.4814 13.161 82.3422 13.161C83.2628 13.161 84.0278 13.4461 84.6355 14.0171C85.2451 14.5879 85.5491 15.3389 85.5491 16.2711V17.7134H79.0913ZM65.2393 25.2391V13.746H70.0491V9.01408H65.2393V3.15574H60.0289V9.01408H49.8735V3.15574H44.662V9.01408H41.7225V13.746H44.662V25.1494C44.662 29.7166 46.7555 31.9997 50.9422 31.9997C52.9617 31.9997 54.6384 31.4133 55.975 30.2421L53.6586 26.4564L53.3473 26.6814C53.1393 26.8019 52.8503 26.93 52.4785 27.0639C52.1072 27.1997 51.7593 27.2678 51.4325 27.2678C50.3928 27.2678 49.8735 26.5917 49.8735 25.2391V13.746H60.0289V25.1494C60.0289 29.7166 62.1227 31.9997 66.308 31.9997C68.3274 31.9997 70.0055 31.4133 71.3421 30.2421L69.026 26.4564L68.7144 26.6814C68.5053 26.8019 68.2165 26.93 67.8447 27.0639C67.4746 27.1997 67.125 27.2678 66.7983 27.2678C65.76 27.2678 65.2393 26.5917 65.2393 25.2391ZM26.9402 24.2024V21.9942H38.4311V16.1809C38.4311 14.0171 37.6661 12.2063 36.1375 10.7492C34.6083 9.29291 32.6265 8.5635 30.1911 8.5635C27.7559 8.5635 25.7589 9.30687 24.2011 10.7947C22.642 12.2826 21.8627 14.1068 21.8627 16.2711V24.2926C21.8627 26.4866 22.6347 28.3191 24.1785 29.7915C25.7229 31.264 27.7123 31.9997 30.1463 31.9997C32.3434 31.9997 34.2292 31.3538 35.8034 30.0613C37.3762 28.7696 38.2822 27.0568 38.5197 24.9244H33.3533L33.1754 25.5549C33.0563 25.975 32.7304 26.3954 32.1959 26.8172C31.66 27.2373 30.9783 27.4478 30.1463 27.4478C29.2262 27.4478 28.4621 27.1479 27.8521 26.5461C27.2442 25.9457 26.9402 25.1647 26.9402 24.2024ZM26.9402 17.7134V16.2711C26.9402 15.3691 27.267 14.6263 27.92 14.0396C28.5732 13.4538 29.3301 13.161 30.1911 13.161C31.112 13.161 31.8767 13.4461 32.4847 14.0171C33.0929 14.5879 33.3983 15.3389 33.3983 16.2711V17.7134H26.9402ZM15.2194 29.3179C16.8234 27.8315 17.6242 25.9457 17.6242 23.6615V20.2822C17.6242 19.1993 17.4089 18.1934 16.9785 17.2626C16.5479 16.3301 16.2065 15.738 15.9549 15.4825C15.7021 15.2262 15.4871 15.039 15.3081 14.9186L15.8437 14.3321C16.1699 13.9716 16.5043 13.3865 16.8448 12.5748C17.1862 11.7634 17.3576 10.9075 17.3576 10.0058V7.39235C17.3576 5.31833 16.6219 3.56815 15.153 2.14152C13.6826 0.714314 11.8495 0 9.65241 0H0.255035V31.5491H9.51815C11.7155 31.5491 13.6162 30.8058 15.2194 29.3179ZM12.0572 10.1867C12.0572 10.787 11.8267 11.3048 11.3662 11.7417C10.9074 12.1775 10.3501 12.3954 9.69716 12.3954H5.64414V5.2739H9.69716C10.3501 5.2739 10.9074 5.49178 11.3662 5.92755C11.8267 6.36275 12.0572 6.88082 12.0572 7.48207V10.1867ZM12.1909 23.6615C12.1909 24.3835 11.9305 24.9987 11.4115 25.5094C10.8922 26.0209 10.2601 26.2764 9.51815 26.2764H5.64414V17.6673H9.51815C10.3501 17.6673 11.0037 17.9678 11.4777 18.5687C11.9533 19.1705 12.1909 19.7556 12.1909 20.3263V23.6615Z" fill="#29235C"/>
<path fill-rule="evenodd" clip-rule="evenodd" d="M126.272 21.281C126.238 21.3161 126.213 21.3479 126.194 21.3784C126.221 21.3466 126.242 21.3115 126.272 21.281Z" fill="#29235C"/>
<path fill-rule="evenodd" clip-rule="evenodd" d="M137.922 27.7876L132.221 22.0213L137.922 16.249C138.329 15.8368 138.329 15.1615 137.922 14.7494L136.044 12.848C135.84 12.6415 135.571 12.5387 135.303 12.5387C135.035 12.5387 134.767 12.6415 134.562 12.8472L128.193 19.2916C128.385 19.1356 128.618 19.057 128.853 19.057C129.122 19.057 129.39 19.1598 129.595 19.3654L132.221 22.0213L129.594 24.6803C129.39 24.886 129.122 24.9891 128.853 24.9891C128.625 24.9891 128.395 24.9139 128.206 24.7646L134.562 31.1966C134.766 31.4022 135.034 31.505 135.302 31.505C135.571 31.505 135.84 31.4005 136.043 31.1949L137.923 29.2872C138.329 28.8759 138.329 28.1995 137.922 27.7876Z" fill="#E73352"/>
<path fill-rule="evenodd" clip-rule="evenodd" d="M123.909 21.3601C123.893 21.3347 123.871 21.3088 123.848 21.2834C123.871 21.3075 123.887 21.3354 123.909 21.3601Z" fill="#29235C"/>
<path fill-rule="evenodd" clip-rule="evenodd" d="M121.67 24.8835C121.634 24.9006 121.6 24.9183 121.563 24.9311C121.452 24.9695 121.336 24.9892 121.22 24.9892C120.952 24.9892 120.683 24.8861 120.479 24.6804L117.854 22.0214L120.479 19.3655C120.683 19.1599 120.952 19.0571 121.22 19.0571C121.456 19.0571 121.694 19.1374 121.886 19.2972L115.513 12.8473C115.309 12.6416 115.04 12.5388 114.772 12.5388C114.503 12.5388 114.234 12.6416 114.031 12.8481L112.153 14.7495C111.746 15.1617 111.746 15.837 112.153 16.2491L117.854 22.0214L112.153 27.7878C111.746 28.1996 111.746 28.876 112.153 29.2873L114.032 31.195C114.235 31.4006 114.505 31.5052 114.773 31.5052C115.041 31.5052 115.309 31.4023 115.513 31.1967L121.871 24.7613C121.823 24.7995 121.773 24.8322 121.721 24.8607C121.705 24.8698 121.687 24.8755 121.67 24.8835Z" fill="#E73352"/>
</svg>
