<svg width="202" height="32" viewBox="0 0 202 32" fill="none" xmlns="http://www.w3.org/2000/svg">
<path d="M114.336 9.75034V22.894H110.491V0H114.336V6.14228H118.094L119.275 9.75034H114.336ZM169.38 15.4201H157.439C157.546 16.7946 157.997 17.8899 158.771 18.706C159.565 19.5007 160.575 19.9087 161.799 19.9087C162.765 19.9087 163.56 19.694 164.161 19.2215C164.44 19.0067 164.891 18.5772 165.493 17.8255L168.736 19.7154C168.067 20.7282 167.188 21.5851 166.158 22.2282C165.514 22.6148 164.827 22.9154 164.075 23.0872C163.345 23.2805 162.529 23.3664 161.67 23.3664C160.561 23.4137 159.454 23.2235 158.425 22.8087C157.395 22.3939 156.466 21.764 155.699 20.9611C154.137 19.1894 153.328 16.8776 153.444 14.5181C153.444 11.8765 154.153 9.72886 155.613 8.09664C156.352 7.29193 157.258 6.65794 158.267 6.23882C159.275 5.8197 160.364 5.62551 161.455 5.6698C163.903 5.6698 165.836 6.46443 167.254 8.03222C168.767 9.84336 169.534 12.162 169.401 14.5181L169.38 15.4201ZM165.428 12.2631C164.891 10.2013 163.603 9.17047 161.562 9.17047C160.675 9.16698 159.813 9.462 159.114 10.0081C158.776 10.2803 158.486 10.6069 158.255 10.9745C158.019 11.3396 157.826 11.7691 157.697 12.2631H165.428ZM141.503 5.47651C143.492 5.55411 145.374 6.39763 146.754 7.8306C148.135 9.26358 148.909 11.175 148.913 13.1651V22.6148H144.832V13.0362C144.832 11.1034 143.243 9.51409 141.289 9.49262H141.267C140.306 9.50392 139.389 9.89357 138.713 10.577C138.038 11.2605 137.659 12.1827 137.659 13.1436V22.6148H133.622V13.0792C133.61 12.1371 133.231 11.2368 132.565 10.5706C131.899 9.90443 130.998 9.52524 130.056 9.51409H130.035C128.081 9.51409 126.427 11.1893 126.427 13.1651V22.6148H122.497V13.0362C122.504 11.5126 122.971 10.0265 123.835 8.77194C124.7 7.51734 125.923 6.5524 127.344 6.00294C128.765 5.45348 130.319 5.34501 131.803 5.69166C133.286 6.03832 134.631 6.82402 135.662 7.94631C137.165 6.33557 139.313 5.43356 141.503 5.49799V5.47651ZM188.773 13.1436V22.6148H184.736V13.0792C184.724 12.1371 184.345 11.2368 183.679 10.5706C183.013 9.90443 182.113 9.52524 181.171 9.51409H181.149C179.195 9.51409 177.541 11.1893 177.541 13.1651V22.6148H173.611V13.0362C173.625 11.0227 174.439 9.09735 175.872 7.68365C176.582 6.98366 177.423 6.43036 178.347 6.05534C179.271 5.68033 180.259 5.49094 181.256 5.49799C182.253 5.50504 183.239 5.70839 184.158 6.09644C185.076 6.48448 185.909 7.04962 186.609 7.75958C187.309 8.46954 187.862 9.31043 188.237 10.2342C188.612 11.158 188.802 12.1466 188.795 13.1436H188.773ZM196.934 9.75034V22.894H193.069V0H196.934V6.14228H201.745L200.456 9.75034H196.913H196.934ZM95.4363 6.14228H99.3021V7.0443C99.9893 6.29262 100.655 6.05638 101.171 5.90604C101.686 5.77718 102.373 5.69128 103.146 5.69128C104.156 5.69128 105.208 6.01342 106.325 6.67919L104.65 9.62148C104.392 9.49262 104.113 9.14899 102.459 9.19195C100.354 9.25638 99.2806 11.0174 99.2806 14.196V22.894H95.4363V6.14228ZM85.3638 6.14228H89.2296V22.894H85.3638V21.1329C84.6569 21.8619 83.8064 22.4364 82.8662 22.8201C81.926 23.2038 80.9164 23.3883 79.9013 23.3621C78.8861 23.3358 77.8874 23.0994 76.9683 22.6676C76.0491 22.2359 75.2295 21.6182 74.5611 20.8537C73.0578 19.1356 72.3276 17.0094 72.3276 14.4537C72.3276 11.9409 73.0578 9.85772 74.5611 8.18255C75.2287 7.40844 76.0535 6.78546 76.9807 6.35511C77.9078 5.92476 78.9161 5.69691 79.9382 5.68675C80.9603 5.67659 81.9729 5.88435 82.9084 6.29619C83.844 6.70802 84.681 7.31448 85.3638 8.07517V6.14228ZM76.2578 14.4537C76.2578 16.0644 76.6873 17.3745 77.5464 18.3839C78.4054 19.3933 79.5007 19.9087 80.8323 19.9087C82.2712 19.9087 83.4095 19.4148 84.29 18.4268C85.1705 17.4174 85.6001 16.1074 85.6001 14.5611C85.6001 12.9718 85.1705 11.6832 84.3115 10.6523C83.4095 9.66443 82.2712 9.14899 80.8752 9.14899C79.5652 9.14899 78.4484 9.66443 77.5678 10.6738C76.6793 11.7287 76.2127 13.0752 76.2578 14.4537ZM55.7692 32H51.9249V6.14228H55.7907V7.94631C56.4466 7.23069 57.2426 6.65745 58.1293 6.26216C59.0159 5.86686 59.9743 5.65793 60.945 5.64832C63.2215 5.64832 65.1115 6.50738 66.5933 8.20403C68.13 9.97389 68.9361 12.2618 68.8484 14.604C68.8484 17.1168 68.0967 19.2 66.6148 20.8752C65.9228 21.679 65.0611 22.3194 64.0919 22.7502C63.1226 23.181 62.0699 23.3915 61.0095 23.3664C59.0551 23.3664 57.3155 22.5933 55.7692 21.004V32ZM64.9397 14.604C65.0025 13.1874 64.5441 11.7968 63.6511 10.6953C62.7705 9.66443 61.6538 9.17047 60.3222 9.17047C58.9048 9.17047 57.7665 9.66443 56.886 10.6523C56.0269 11.6403 55.5759 12.9289 55.5759 14.5181C55.5759 16.1074 56.0054 17.396 56.886 18.4054C57.745 19.4148 58.9048 19.9087 60.3222 19.9087C61.6323 19.9087 62.7491 19.4148 63.6081 18.4054C64.5098 17.3567 64.9851 16.0078 64.9397 14.6255V14.604ZM47.8229 15.4201H35.9034C36.0108 16.7946 36.4403 17.8899 37.235 18.706C38.0296 19.5007 39.0175 19.9087 40.2417 19.9087C41.2081 19.9087 42.0027 19.694 42.6256 19.2215C42.8833 19.0282 43.3128 18.5772 43.9142 17.8685L47.1142 19.7584C46.4405 20.7555 45.5619 21.5975 44.537 22.2282C43.9142 22.6148 43.2269 22.9154 42.4967 23.0872C41.745 23.2805 40.9504 23.3664 40.0699 23.3664C38.9608 23.4137 37.8544 23.2235 36.8248 22.8087C35.7951 22.3939 34.8659 21.764 34.0994 20.9611C32.5367 19.1894 31.7276 16.8776 31.8444 14.5181C31.8444 11.8765 32.5746 9.72886 34.035 8.09664C34.7738 7.29193 35.6792 6.65794 36.688 6.23882C37.6969 5.8197 38.785 5.62551 39.8766 5.6698C42.3249 5.6698 44.2578 6.46443 45.6752 8.03222C47.1804 9.84653 47.9404 12.1648 47.8014 14.5181V15.4201H47.8229ZM43.8927 12.2846C43.3558 10.2228 42.0457 9.19195 40.0269 9.19195C39.1399 9.18846 38.2776 9.48347 37.5786 10.0295C37.2406 10.3018 36.9502 10.6284 36.7195 10.996C36.4618 11.3826 36.29 11.8121 36.1611 12.2846H43.8927Z" fill="black"/>
<path d="M1.45504 2.57715H23.1893C23.7047 2.57715 24.1342 3.00668 24.1342 3.52211V25.0416C24.1342 25.557 23.7047 25.9865 23.1893 25.9865H1.45504C0.939601 25.9865 0.510071 25.557 0.510071 25.0416V3.52211C0.510071 3.00668 0.939601 2.57715 1.45504 2.57715ZM17.3047 16.5798C17.7772 16.5798 18.0564 15.9355 17.6913 15.6134L8.75705 6.39997C8.4349 6.03487 7.81208 6.29258 7.81208 6.80802V20.3382C7.81208 20.8107 8.39195 21.0899 8.75705 20.7248L11.4846 17.9329L13.1383 21.9919C13.2671 22.2711 13.5893 22.4214 13.8685 22.2926L15.4148 21.6053C15.694 21.498 15.8443 21.1758 15.7154 20.8537L13.9758 16.5798H17.3047Z" fill="#FFA800"/>
</svg>
