<svg width="114" height="32" viewBox="0 0 114 32" fill="none" xmlns="http://www.w3.org/2000/svg">
<path d="M76.3043 31.3905L80.2562 12.1905L81.7609 31.3905H90.2882L86.3363 0.914307H77.2162L72.96 19.1999L68.7043 0.914307H59.5842L55.6321 31.3905H64.1442L65.6643 12.1905L69.6163 31.3905H76.3043Z" fill="#0F238C"/>
<path d="M102.752 0.914307H94.5441V31.3905H114V24.9905H102.752V0.914307Z" fill="#0F238C"/>
<path d="M19.4561 0.914307H9.11995L0 31.3905H9.12006L10.336 25.9049H18.24L19.4561 31.3905H28.5761L19.4561 0.914307ZM14.2881 7.61904L17.0241 20.1142L11.552 20.1143L14.2881 7.61904Z" fill="#0F238C"/>
<path d="M50.4638 9.4477C42.9104 2.82446 31.1235 5.51724 31.0079 11.5811C29.294 0.330375 42.8651 -2.01847 50.4631 1.52388C50.5984 3.33031 50.7341 5.27523 50.4638 9.4477Z" fill="#0F238C"/>
<path d="M44.1969 13.0363C42.2938 12.2917 39.5251 11.6142 39.5211 9.44505C39.5195 8.55903 39.8831 7.597 41.6478 7.00977C35.5678 7.61926 33.5402 15.0338 40.2648 18.719C41.4367 19.3613 43.4718 20.0426 43.4718 22.2476C43.4718 24.8233 40.6491 25.7544 38.7923 25.715C35.7078 25.65 33.2279 24.5698 30.3998 22.5523V29.8666C33.7466 31.311 39.198 32.9768 44.6628 31.2918C49.0795 29.9301 52.8958 26.2133 52.8958 22.2475C52.896 15.7943 47.3093 14.2543 44.1969 13.0363Z" fill="#0F238C"/>
</svg>
